<svg version="1.1" id="Layer_1" xmlns="http://www.w3.org/2000/svg" xmlns:xlink="http://www.w3.org/1999/xlink" x="0px" y="0px"
	 width="100%" viewBox="0 0 1200 1200" enable-background="new 0 0 1200 1200" xml:space="preserve">
<path fill="#4960A6" opacity="1.000000" stroke="none" 
	d="
M1068.000000,1201.000000 
	C712.000000,1201.000000 356.500000,1201.000000 1.000000,1201.000000 
	C1.000000,801.000000 1.000000,401.000000 1.000000,1.000000 
	C401.000000,1.000000 801.000000,1.000000 1201.000000,1.000000 
	C1201.000000,401.000000 1201.000000,801.000000 1201.000000,1201.000000 
	C1156.833374,1201.000000 1112.666626,1201.000000 1068.000000,1201.000000 
M952.499939,640.797913 
	C981.227295,640.797913 1009.954651,640.797913 1038.683716,640.797913 
	C1038.683716,613.627075 1038.683716,587.384155 1038.683716,560.859985 
	C1036.741943,560.757629 1035.097900,560.595276 1033.453857,560.595093 
	C925.841675,560.583557 818.229431,560.613342 710.617432,560.491943 
	C705.849915,560.486572 704.668030,562.159302 704.699463,566.596985 
	C704.861328,589.417603 704.763123,612.239990 704.797546,635.061707 
	C704.800232,636.837830 705.124939,638.613403 705.340210,640.797913 
	C787.634399,640.797913 869.567139,640.797913 952.499939,640.797913 
M253.422073,609.499207 
	C253.422073,602.837524 253.422073,596.175781 253.422073,589.514099 
	C253.929901,589.456482 254.437744,589.398926 254.945572,589.341309 
	C255.791153,590.709473 256.685272,592.050354 257.474243,593.450378 
	C261.807983,601.140625 266.074249,608.869141 270.447357,616.536804 
	C273.388306,621.693420 276.611633,621.701965 279.473267,616.566162 
	C284.093964,608.273621 288.609222,599.922424 293.214020,591.620911 
	C293.783783,590.593750 294.628448,589.719177 296.215149,587.628052 
	C296.215149,601.883240 296.215149,614.661255 296.215149,627.718384 
	C298.571960,627.718384 300.487213,627.718384 302.721130,627.718384 
	C302.721130,609.845337 302.721130,592.136719 302.721130,574.526978 
	C297.779327,573.070740 294.745544,574.213745 292.472717,578.931824 
	C288.574829,587.023315 283.960144,594.770203 279.622925,602.648865 
	C278.227142,605.184265 276.757507,607.678955 274.906311,610.919373 
	C268.563141,599.551025 262.504150,589.226929 257.014343,578.608521 
	C254.578751,573.897644 251.452911,573.202942 246.870361,574.554810 
	C246.870361,592.325745 246.870361,609.929626 246.870361,627.716064 
	C249.085342,627.716064 251.006363,627.716064 253.421890,627.716064 
	C253.421890,621.788452 253.421890,616.143188 253.422073,609.499207 
M414.812500,609.499207 
	C414.812500,602.789612 414.812500,596.079956 414.812500,589.370361 
	C415.258423,589.268250 415.704346,589.166199 416.150269,589.064148 
	C417.261078,590.430237 418.404327,591.771423 419.477478,593.166504 
	C427.597687,603.722351 435.763489,614.244263 443.774353,624.882629 
	C445.844360,627.631592 448.075806,628.837463 451.517029,627.459412 
	C451.517029,609.742371 451.517029,592.033569 451.517029,574.420349 
	C449.229492,574.420349 447.344635,574.420349 444.905426,574.420349 
	C444.905426,587.381470 444.905426,599.922852 444.905426,613.913330 
	C442.920746,611.604553 441.839355,610.457031 440.881042,609.214539 
	C432.646118,598.537537 424.359558,587.898926 416.262268,577.118225 
	C414.029480,574.145508 411.642670,573.176880 408.242065,574.583679 
	C408.242065,592.350464 408.242065,609.943848 408.242065,627.693542 
	C410.457184,627.693542 412.360138,627.693542 414.812500,627.693542 
	C414.812500,621.753052 414.812500,616.125549 414.812500,609.499207 
M520.015503,611.732605 
	C517.407715,619.858459 511.747375,623.952637 504.674713,622.828857 
	C497.328064,621.661560 493.008026,616.236145 492.826813,607.892578 
	C492.772614,605.398132 492.813019,602.901550 492.812805,600.405945 
	C492.812073,591.793762 492.812500,583.181641 492.812500,574.281372 
	C489.966827,574.281372 487.725922,574.281372 485.010956,574.281372 
	C485.010956,585.936890 484.698944,597.393677 485.095062,608.825928 
	C485.527283,621.300537 494.311584,629.080811 507.039948,629.022217 
	C519.160583,628.966431 527.702393,620.819214 528.072571,608.409180 
	C528.380005,598.103333 528.163574,587.781494 528.138306,577.466858 
	C528.135620,576.382996 527.856628,575.299805 527.712463,574.263489 
	C525.163147,574.263489 523.062805,574.263489 520.140442,574.263489 
	C520.140442,586.644348 520.140442,598.752258 520.015503,611.732605 
M370.120697,601.208313 
	C367.113159,593.624512 364.039246,586.065979 361.132416,578.443726 
	C360.047241,575.598267 358.910706,573.749451 355.205383,573.823608 
	C351.712738,573.893494 350.759430,575.672180 349.723206,578.313721 
	C344.129547,592.573486 338.417938,606.786865 332.756500,621.020020 
	C331.919434,623.124329 331.132721,625.248779 330.204010,627.673889 
	C334.249390,628.042542 337.480469,629.118164 339.342499,624.349304 
	C343.796295,612.942749 343.994232,613.020020 356.405640,613.020020 
	C356.572205,613.020020 356.738739,613.020020 356.905304,613.020020 
	C367.141998,613.019958 367.425934,612.924255 370.681000,622.580688 
	C372.400665,627.682129 375.179901,629.034363 380.543243,627.377991 
	C377.143921,618.840576 373.775818,610.381592 370.120697,601.208313 
M592.749329,622.003601 
	C585.125793,622.003601 577.502258,622.003601 569.535217,622.003601 
	C569.535217,615.831177 569.535217,610.256653 569.535217,604.088989 
	C576.322571,604.088989 582.891479,604.088989 589.577209,604.088989 
	C589.577209,601.757446 589.577209,600.018677 589.577209,597.841064 
	C582.766418,597.841064 576.318542,597.841064 569.532104,597.841064 
	C569.532104,591.826538 569.532104,586.250977 569.532104,580.084045 
	C577.987549,580.084045 586.226135,580.084045 594.574829,580.084045 
	C594.574829,577.756287 594.574829,576.018311 594.574829,574.317505 
	C583.457520,574.317505 572.715149,574.317505 561.851196,574.317505 
	C561.851196,592.331970 561.851196,610.007751 561.851196,627.689453 
	C573.060486,627.689453 583.784363,627.689453 595.488342,627.689453 
	C594.716492,625.428711 594.142944,623.748779 592.749329,622.003601 
M202.457718,604.005249 
	C205.226807,604.005249 207.995911,604.005249 211.118256,604.005249 
	C211.009506,601.666077 210.935898,600.082825 210.841934,598.062012 
	C204.037659,598.062012 197.599701,598.062012 190.780884,598.062012 
	C190.780884,591.891235 190.780884,586.176147 190.780884,579.840942 
	C199.339325,579.840942 207.571198,579.840942 216.132187,579.840942 
	C216.007843,577.622498 215.919312,576.043152 215.822647,574.318604 
	C204.695862,574.318604 193.973297,574.318604 183.081207,574.318604 
	C183.081207,592.298584 183.081207,609.951538 183.081207,627.643188 
	C194.285507,627.643188 205.012024,627.643188 215.794586,627.643188 
	C215.794586,625.696533 215.794586,624.113831 215.794586,621.874512 
	C207.293823,621.874512 199.091141,621.874512 190.749603,621.874512 
	C190.749603,615.633789 190.749603,610.058044 190.749603,604.005249 
	C194.562103,604.005249 198.023621,604.005249 202.457718,604.005249 
M647.414185,628.023987 
	C650.197510,628.023987 652.980896,628.023987 656.009155,628.023987 
	C656.009155,625.782166 656.009155,624.055664 656.009155,621.848877 
	C648.387451,621.848877 641.120361,621.848877 633.130859,621.848877 
	C633.130859,605.699341 633.130859,590.017639 633.130859,574.205322 
	C630.274353,574.205322 628.158325,574.205322 625.723022,574.205322 
	C625.723022,592.130127 625.723022,609.829407 625.723022,628.023926 
	C632.866943,628.023926 639.653564,628.023926 647.414185,628.023987 
z"/>
<path fill="#F4AE85" opacity="1.000000" stroke="none" 
	d="
M951.999878,640.797913 
	C869.567139,640.797913 787.634399,640.797913 705.340210,640.797913 
	C705.124939,638.613403 704.800232,636.837830 704.797546,635.061707 
	C704.763123,612.239990 704.861328,589.417603 704.699463,566.596985 
	C704.668030,562.159302 705.849915,560.486572 710.617432,560.491943 
	C818.229431,560.613342 925.841675,560.583557 1033.453857,560.595093 
	C1035.097900,560.595276 1036.741943,560.757629 1038.683716,560.859985 
	C1038.683716,587.384155 1038.683716,613.627075 1038.683716,640.797913 
	C1009.954651,640.797913 981.227295,640.797913 951.999878,640.797913 
M789.370728,606.821838 
	C792.865112,621.993713 803.349121,630.144775 817.845215,628.960022 
	C831.312561,627.859375 840.703552,617.814575 841.780762,603.358093 
	C843.028198,586.616089 832.124939,573.496094 816.548340,572.995850 
	C800.010803,572.464783 788.494019,584.541748 788.933533,601.974548 
	C788.967041,603.302063 789.130554,604.626282 789.370728,606.821838 
M731.973511,620.394653 
	C731.973511,615.448792 731.973511,610.502991 731.973511,605.648743 
	C737.041260,604.188904 740.436096,605.023926 743.088318,609.344116 
	C746.214233,614.435974 750.173401,619.014160 753.334534,624.087219 
	C755.910156,628.220581 759.142456,628.647400 763.845398,627.396606 
	C758.163147,619.425781 752.807983,611.913818 747.285400,604.166931 
	C749.401489,603.016418 751.192932,602.190735 752.828552,601.125854 
	C758.145325,597.664307 759.955688,592.589905 759.282532,586.471680 
	C758.641663,580.647461 755.199768,576.506775 749.785828,575.585510 
	C741.740112,574.216187 733.480408,574.103943 725.275879,573.453857 
	C725.275879,592.425415 725.275879,610.094543 725.275879,627.624634 
	C727.679443,627.624634 729.589661,627.624634 731.973450,627.624634 
	C731.973450,625.287048 731.973450,623.322449 731.973511,620.394653 
M966.984009,627.885559 
	C966.956238,626.589722 967.290100,625.152100 966.846130,624.019409 
	C960.767273,608.512024 954.540833,593.062622 948.462280,577.555176 
	C947.500122,575.100525 946.340332,573.916809 943.448303,573.866882 
	C940.246643,573.811646 939.156311,575.368591 938.150757,577.931458 
	C932.250061,592.971680 926.225464,607.963318 920.265991,622.980591 
	C919.690002,624.432129 919.273987,625.947144 918.737976,627.570984 
	C922.651428,628.338806 926.166748,628.694336 926.848389,624.392395 
	C928.524841,613.811462 935.051575,612.097900 944.501770,612.821716 
	C955.283875,613.647583 955.445190,612.970886 959.274902,623.265869 
	C960.557800,626.714539 962.303223,628.706177 966.984009,627.885559 
M1021.169434,624.729431 
	C1030.780518,614.393188 1028.289795,603.008423 1015.306030,597.998108 
	C1012.363464,596.862610 1009.312561,595.975586 1006.452393,594.666504 
	C1002.876648,593.029968 1000.373657,590.464722 1001.172791,586.080811 
	C1001.977966,581.663696 1005.112549,579.206482 1009.192810,579.245483 
	C1012.661499,579.278687 1016.087402,581.005554 1019.589600,581.688904 
	C1021.014771,581.967041 1022.591736,581.467773 1024.099609,581.322266 
	C1023.697876,579.691406 1023.838806,577.305420 1022.800964,576.559631 
	C1018.155640,573.221497 1012.740356,572.235596 1007.131775,573.328674 
	C999.648621,574.786926 994.817871,580.228638 994.349854,587.321594 
	C993.888306,594.316101 997.229431,599.086060 1004.716553,601.944641 
	C1007.661438,603.068970 1010.713135,603.916504 1013.647583,605.065308 
	C1017.915710,606.736206 1020.624390,609.527161 1019.896423,614.561646 
	C1019.219299,619.244934 1015.734436,623.065063 1010.745178,622.746399 
	C1006.662170,622.485535 1002.726929,620.323914 998.653503,619.291992 
	C997.088379,618.895447 994.772095,618.627136 993.757935,619.463867 
	C991.405884,621.404236 993.032654,623.125061 994.951660,624.591614 
	C1002.312500,630.216919 1012.439636,630.486328 1021.169434,624.729431 
M884.026489,587.513062 
	C883.987488,595.676819 884.197754,603.851562 883.838989,612.001221 
	C883.483032,620.085999 879.396240,623.353394 871.578796,623.015015 
	C870.108337,622.951416 867.672485,623.912354 867.249756,625.006348 
	C866.092529,628.000977 868.732666,628.480774 870.905396,628.845886 
	C882.262024,630.754395 890.722595,623.698730 891.013550,611.675964 
	C891.279602,600.684998 891.096924,589.682800 891.074707,578.685608 
	C891.071777,577.241821 890.848083,575.798523 890.724060,574.324280 
	C888.405151,574.324280 886.495422,574.324280 884.026489,574.324280 
	C884.026489,578.595032 884.026489,582.557129 884.026489,587.513062 
z"/>
<path fill="#F0AC86" opacity="1.000000" stroke="none" 
	d="
M253.421982,609.998535 
	C253.421890,616.143188 253.421890,621.788452 253.421890,627.716064 
	C251.006363,627.716064 249.085342,627.716064 246.870361,627.716064 
	C246.870361,609.929626 246.870361,592.325745 246.870361,574.554810 
	C251.452911,573.202942 254.578751,573.897644 257.014343,578.608521 
	C262.504150,589.226929 268.563141,599.551025 274.906311,610.919373 
	C276.757507,607.678955 278.227142,605.184265 279.622925,602.648865 
	C283.960144,594.770203 288.574829,587.023315 292.472717,578.931824 
	C294.745544,574.213745 297.779327,573.070740 302.721130,574.526978 
	C302.721130,592.136719 302.721130,609.845337 302.721130,627.718384 
	C300.487213,627.718384 298.571960,627.718384 296.215149,627.718384 
	C296.215149,614.661255 296.215149,601.883240 296.215149,587.628052 
	C294.628448,589.719177 293.783783,590.593750 293.214020,591.620911 
	C288.609222,599.922424 284.093964,608.273621 279.473267,616.566162 
	C276.611633,621.701965 273.388306,621.693420 270.447357,616.536804 
	C266.074249,608.869141 261.807983,601.140625 257.474243,593.450378 
	C256.685272,592.050354 255.791153,590.709473 254.945572,589.341309 
	C254.437744,589.398926 253.929901,589.456482 253.422073,589.514099 
	C253.422073,596.175781 253.422073,602.837524 253.421982,609.998535 
z"/>
<path fill="#EEAB86" opacity="1.000000" stroke="none" 
	d="
M414.812500,609.998657 
	C414.812500,616.125549 414.812500,621.753052 414.812500,627.693542 
	C412.360138,627.693542 410.457184,627.693542 408.242065,627.693542 
	C408.242065,609.943848 408.242065,592.350464 408.242065,574.583679 
	C411.642670,573.176880 414.029480,574.145508 416.262268,577.118225 
	C424.359558,587.898926 432.646118,598.537537 440.881042,609.214539 
	C441.839355,610.457031 442.920746,611.604553 444.905426,613.913330 
	C444.905426,599.922852 444.905426,587.381470 444.905426,574.420349 
	C447.344635,574.420349 449.229492,574.420349 451.517029,574.420349 
	C451.517029,592.033569 451.517029,609.742371 451.517029,627.459412 
	C448.075806,628.837463 445.844360,627.631592 443.774353,624.882629 
	C435.763489,614.244263 427.597687,603.722351 419.477478,593.166504 
	C418.404327,591.771423 417.261078,590.430237 416.150269,589.064148 
	C415.704346,589.166199 415.258423,589.268250 414.812500,589.370361 
	C414.812500,596.079956 414.812500,602.789612 414.812500,609.998657 
z"/>
<path fill="#EEAB86" opacity="1.000000" stroke="none" 
	d="
M520.078003,611.296387 
	C520.140442,598.752258 520.140442,586.644348 520.140442,574.263489 
	C523.062805,574.263489 525.163147,574.263489 527.712463,574.263489 
	C527.856628,575.299805 528.135620,576.382996 528.138306,577.466858 
	C528.163574,587.781494 528.380005,598.103333 528.072571,608.409180 
	C527.702393,620.819214 519.160583,628.966431 507.039948,629.022217 
	C494.311584,629.080811 485.527283,621.300537 485.095062,608.825928 
	C484.698944,597.393677 485.010956,585.936890 485.010956,574.281372 
	C487.725922,574.281372 489.966827,574.281372 492.812500,574.281372 
	C492.812500,583.181641 492.812073,591.793762 492.812805,600.405945 
	C492.813019,602.901550 492.772614,605.398132 492.826813,607.892578 
	C493.008026,616.236145 497.328064,621.661560 504.674713,622.828857 
	C511.747375,623.952637 517.407715,619.858459 520.078003,611.296387 
z"/>
<path fill="#EFAC86" opacity="1.000000" stroke="none" 
	d="
M370.264221,601.565430 
	C373.775818,610.381592 377.143921,618.840576 380.543243,627.377991 
	C375.179901,629.034363 372.400665,627.682129 370.681000,622.580688 
	C367.425934,612.924255 367.141998,613.019958 356.905304,613.020020 
	C356.738739,613.020020 356.572205,613.020020 356.405640,613.020020 
	C343.994232,613.020020 343.796295,612.942749 339.342499,624.349304 
	C337.480469,629.118164 334.249390,628.042542 330.204010,627.673889 
	C331.132721,625.248779 331.919434,623.124329 332.756500,621.020020 
	C338.417938,606.786865 344.129547,592.573486 349.723206,578.313721 
	C350.759430,575.672180 351.712738,573.893494 355.205383,573.823608 
	C358.910706,573.749451 360.047241,575.598267 361.132416,578.443726 
	C364.039246,586.065979 367.113159,593.624512 370.264221,601.565430 
M353.609161,607.998352 
	C357.195892,607.998352 360.782623,607.998352 365.156403,607.998352 
	C361.828644,599.409302 358.833435,591.678467 355.359680,582.712646 
	C351.858795,591.857849 348.879547,599.640381 345.679993,607.998413 
	C348.696503,607.998413 350.685669,607.998413 353.609161,607.998352 
z"/>
<path fill="#F0AC86" opacity="1.000000" stroke="none" 
	d="
M593.159363,622.036255 
	C594.142944,623.748779 594.716492,625.428711 595.488342,627.689453 
	C583.784363,627.689453 573.060486,627.689453 561.851196,627.689453 
	C561.851196,610.007751 561.851196,592.331970 561.851196,574.317505 
	C572.715149,574.317505 583.457520,574.317505 594.574829,574.317505 
	C594.574829,576.018311 594.574829,577.756287 594.574829,580.084045 
	C586.226135,580.084045 577.987549,580.084045 569.532104,580.084045 
	C569.532104,586.250977 569.532104,591.826538 569.532104,597.841064 
	C576.318542,597.841064 582.766418,597.841064 589.577209,597.841064 
	C589.577209,600.018677 589.577209,601.757446 589.577209,604.088989 
	C582.891479,604.088989 576.322571,604.088989 569.535217,604.088989 
	C569.535217,610.256653 569.535217,615.831177 569.535217,622.003601 
	C577.502258,622.003601 585.125793,622.003601 593.159363,622.036255 
z"/>
<path fill="#F4AE85" opacity="1.000000" stroke="none" 
	d="
M201.971420,604.005249 
	C198.023621,604.005249 194.562103,604.005249 190.749603,604.005249 
	C190.749603,610.058044 190.749603,615.633789 190.749603,621.874512 
	C199.091141,621.874512 207.293823,621.874512 215.794586,621.874512 
	C215.794586,624.113831 215.794586,625.696533 215.794586,627.643188 
	C205.012024,627.643188 194.285507,627.643188 183.081207,627.643188 
	C183.081207,609.951538 183.081207,592.298584 183.081207,574.318604 
	C193.973297,574.318604 204.695862,574.318604 215.822647,574.318604 
	C215.919312,576.043152 216.007843,577.622498 216.132187,579.840942 
	C207.571198,579.840942 199.339325,579.840942 190.780884,579.840942 
	C190.780884,586.176147 190.780884,591.891235 190.780884,598.062012 
	C197.599701,598.062012 204.037659,598.062012 210.841934,598.062012 
	C210.935898,600.082825 211.009506,601.666077 211.118256,604.005249 
	C207.995911,604.005249 205.226807,604.005249 201.971420,604.005249 
z"/>
<path fill="#EEAB86" opacity="1.000000" stroke="none" 
	d="
M646.927124,628.023926 
	C639.653564,628.023926 632.866943,628.023926 625.723022,628.023926 
	C625.723022,609.829407 625.723022,592.130127 625.723022,574.205322 
	C628.158325,574.205322 630.274353,574.205322 633.130859,574.205322 
	C633.130859,590.017639 633.130859,605.699341 633.130859,621.848877 
	C641.120361,621.848877 648.387451,621.848877 656.009155,621.848877 
	C656.009155,624.055664 656.009155,625.782166 656.009155,628.023987 
	C652.980896,628.023987 650.197510,628.023987 646.927124,628.023926 
z"/>
<path fill="#4F63A5" opacity="1.000000" stroke="none" 
	d="
M789.302246,606.386963 
	C789.130554,604.626282 788.967041,603.302063 788.933533,601.974548 
	C788.494019,584.541748 800.010803,572.464783 816.548340,572.995850 
	C832.124939,573.496094 843.028198,586.616089 841.780762,603.358093 
	C840.703552,617.814575 831.312561,627.859375 817.845215,628.960022 
	C803.349121,630.144775 792.865112,621.993713 789.302246,606.386963 
M797.696350,591.555298 
	C797.415649,596.811218 796.315186,602.181091 797.027039,607.298950 
	C798.454895,617.563965 805.992798,623.262390 816.250610,622.981140 
	C825.613953,622.724487 832.588074,616.356812 833.925293,606.518799 
	C834.347595,603.412720 834.358704,600.192566 834.099365,597.062622 
	C833.299988,587.414490 827.381042,580.624329 818.800293,579.172485 
	C809.593384,577.614807 802.160950,581.767883 797.696350,591.555298 
z"/>
<path fill="#4F63A5" opacity="1.000000" stroke="none" 
	d="
M731.973511,620.876282 
	C731.973450,623.322449 731.973450,625.287048 731.973450,627.624634 
	C729.589661,627.624634 727.679443,627.624634 725.275879,627.624634 
	C725.275879,610.094543 725.275879,592.425415 725.275879,573.453857 
	C733.480408,574.103943 741.740112,574.216187 749.785828,575.585510 
	C755.199768,576.506775 758.641663,580.647461 759.282532,586.471680 
	C759.955688,592.589905 758.145325,597.664307 752.828552,601.125854 
	C751.192932,602.190735 749.401489,603.016418 747.285400,604.166931 
	C752.807983,611.913818 758.163147,619.425781 763.845398,627.396606 
	C759.142456,628.647400 755.910156,628.220581 753.334534,624.087219 
	C750.173401,619.014160 746.214233,614.435974 743.088318,609.344116 
	C740.436096,605.023926 737.041260,604.188904 731.973511,605.648743 
	C731.973511,610.502991 731.973511,615.448792 731.973511,620.876282 
M742.817200,599.867004 
	C743.770508,599.589966 744.750427,599.381653 745.672546,599.024109 
	C750.474548,597.162354 752.913940,593.448425 752.501709,588.685608 
	C752.056152,583.537964 748.758057,580.935120 744.098022,580.338196 
	C740.262207,579.846741 736.313232,580.237854 732.310425,580.237854 
	C732.310425,587.014832 732.310425,593.226074 732.310425,599.945618 
	C735.745117,599.945618 738.849976,599.945618 742.817200,599.867004 
z"/>
<path fill="#4F63A5" opacity="1.000000" stroke="none" 
	d="
M966.582153,627.932495 
	C962.303223,628.706177 960.557800,626.714539 959.274902,623.265869 
	C955.445190,612.970886 955.283875,613.647583 944.501770,612.821716 
	C935.051575,612.097900 928.524841,613.811462 926.848389,624.392395 
	C926.166748,628.694336 922.651428,628.338806 918.737976,627.570984 
	C919.273987,625.947144 919.690002,624.432129 920.265991,622.980591 
	C926.225464,607.963318 932.250061,592.971680 938.150757,577.931458 
	C939.156311,575.368591 940.246643,573.811646 943.448303,573.866882 
	C946.340332,573.916809 947.500122,575.100525 948.462280,577.555176 
	C954.540833,593.062622 960.767273,608.512024 966.846130,624.019409 
	C967.290100,625.152100 966.956238,626.589722 966.582153,627.932495 
M943.491150,607.999451 
	C946.549805,607.999451 949.608398,607.999451 953.442871,607.999451 
	C950.007690,599.114807 946.919922,591.128662 943.371765,581.951782 
	C939.784790,591.257690 936.717285,599.215820 933.331665,607.999390 
	C937.024536,607.999390 939.780579,607.999390 943.491150,607.999451 
z"/>
<path fill="#4F63A5" opacity="1.000000" stroke="none" 
	d="
M1020.883606,624.961426 
	C1012.439636,630.486328 1002.312500,630.216919 994.951660,624.591614 
	C993.032654,623.125061 991.405884,621.404236 993.757935,619.463867 
	C994.772095,618.627136 997.088379,618.895447 998.653503,619.291992 
	C1002.726929,620.323914 1006.662170,622.485535 1010.745178,622.746399 
	C1015.734436,623.065063 1019.219299,619.244934 1019.896423,614.561646 
	C1020.624390,609.527161 1017.915710,606.736206 1013.647583,605.065308 
	C1010.713135,603.916504 1007.661438,603.068970 1004.716553,601.944641 
	C997.229431,599.086060 993.888306,594.316101 994.349854,587.321594 
	C994.817871,580.228638 999.648621,574.786926 1007.131775,573.328674 
	C1012.740356,572.235596 1018.155640,573.221497 1022.800964,576.559631 
	C1023.838806,577.305420 1023.697876,579.691406 1024.099609,581.322266 
	C1022.591736,581.467773 1021.014771,581.967041 1019.589600,581.688904 
	C1016.087402,581.005554 1012.661499,579.278687 1009.192810,579.245483 
	C1005.112549,579.206482 1001.977966,581.663696 1001.172791,586.080811 
	C1000.373657,590.464722 1002.876648,593.029968 1006.452393,594.666504 
	C1009.312561,595.975586 1012.363464,596.862610 1015.306030,597.998108 
	C1028.289795,603.008423 1030.780518,614.393188 1020.883606,624.961426 
z"/>
<path fill="#4F63A5" opacity="1.000000" stroke="none" 
	d="
M884.026489,587.016113 
	C884.026489,582.557129 884.026489,578.595032 884.026489,574.324280 
	C886.495422,574.324280 888.405151,574.324280 890.724060,574.324280 
	C890.848083,575.798523 891.071777,577.241821 891.074707,578.685608 
	C891.096924,589.682800 891.279602,600.684998 891.013550,611.675964 
	C890.722595,623.698730 882.262024,630.754395 870.905396,628.845886 
	C868.732666,628.480774 866.092529,628.000977 867.249756,625.006348 
	C867.672485,623.912354 870.108337,622.951416 871.578796,623.015015 
	C879.396240,623.353394 883.483032,620.085999 883.838989,612.001221 
	C884.197754,603.851562 883.987488,595.676819 884.026489,587.016113 
z"/>
<path fill="#4F63A5" opacity="1.000000" stroke="none" 
	d="
M353.141998,607.998413 
	C350.685669,607.998413 348.696503,607.998413 345.679993,607.998413 
	C348.879547,599.640381 351.858795,591.857849 355.359680,582.712646 
	C358.833435,591.678467 361.828644,599.409302 365.156403,607.998352 
	C360.782623,607.998352 357.195892,607.998352 353.141998,607.998413 
z"/>
<path fill="#F4AE85" opacity="1.000000" stroke="none" 
	d="
M797.832153,591.184204 
	C802.160950,581.767883 809.593384,577.614807 818.800293,579.172485 
	C827.381042,580.624329 833.299988,587.414490 834.099365,597.062622 
	C834.358704,600.192566 834.347595,603.412720 833.925293,606.518799 
	C832.588074,616.356812 825.613953,622.724487 816.250610,622.981140 
	C805.992798,623.262390 798.454895,617.563965 797.027039,607.298950 
	C796.315186,602.181091 797.415649,596.811218 797.832153,591.184204 
z"/>
<path fill="#F4AE85" opacity="1.000000" stroke="none" 
	d="
M742.385986,599.906311 
	C738.849976,599.945618 735.745117,599.945618 732.310425,599.945618 
	C732.310425,593.226074 732.310425,587.014832 732.310425,580.237854 
	C736.313232,580.237854 740.262207,579.846741 744.098022,580.338196 
	C748.758057,580.935120 752.056152,583.537964 752.501709,588.685608 
	C752.913940,593.448425 750.474548,597.162354 745.672546,599.024109 
	C744.750427,599.381653 743.770508,599.589966 742.385986,599.906311 
z"/>
<path fill="#F0AC86" opacity="1.000000" stroke="none" 
	d="
M943.013916,607.999390 
	C939.780579,607.999390 937.024536,607.999390 933.331665,607.999390 
	C936.717285,599.215820 939.784790,591.257690 943.371765,581.951782 
	C946.919922,591.128662 950.007690,599.114807 953.442871,607.999451 
	C949.608398,607.999451 946.549805,607.999451 943.013916,607.999390 
z"/>
</svg>