<svg version="1.1" id="Layer_1" xmlns="http://www.w3.org/2000/svg" xmlns:xlink="http://www.w3.org/1999/xlink" x="0px" y="0px"
	 width="100%" viewBox="0 0 1200 1200" enable-background="new 0 0 1200 1200" xml:space="preserve">
<path fill="#000000" opacity="1.000000" stroke="none" 
	d="
M1068.000000,1201.000000 
	C712.000000,1201.000000 356.500000,1201.000000 1.000000,1201.000000 
	C1.000000,801.000000 1.000000,401.000000 1.000000,1.000000 
	C401.000000,1.000000 801.000000,1.000000 1201.000000,1.000000 
	C1201.000000,401.000000 1201.000000,801.000000 1201.000000,1201.000000 
	C1156.833374,1201.000000 1112.666626,1201.000000 1068.000000,1201.000000 
M952.500000,641.001343 
	C981.250488,641.001343 1010.000977,641.001343 1038.674805,641.001343 
	C1038.674805,613.659485 1038.674805,586.936462 1038.674805,560.306885 
	C926.983276,560.306885 815.618591,560.306885 704.326355,560.306885 
	C704.326355,587.339722 704.326355,614.062561 704.326355,641.001343 
	C786.935364,641.001343 869.217712,641.001343 952.500000,641.001343 
M253.998917,625.269775 
	C253.998917,613.416016 253.998917,601.562317 253.998917,588.538635 
	C259.759796,598.798584 264.781769,607.981689 270.095428,616.992737 
	C271.089783,618.679077 273.353516,620.828796 274.849640,620.697327 
	C276.676239,620.536682 278.884766,618.529236 279.931946,616.738098 
	C285.187195,607.749146 290.117004,598.570068 295.161194,589.457825 
	C295.490631,589.551025 295.820099,589.644165 296.149536,589.737305 
	C296.149536,602.434509 296.149536,615.131653 296.149536,627.645752 
	C299.040344,627.645752 301.438263,627.645752 303.636780,627.645752 
	C303.636780,609.562195 303.636780,591.834473 303.636780,574.128113 
	C300.288727,574.128113 297.302673,574.128113 294.588745,574.128113 
	C288.094788,585.917114 281.718353,597.492737 274.921204,609.832214 
	C269.313721,599.599182 263.985168,590.062683 258.842987,580.426758 
	C255.284378,573.758240 253.684738,572.918518 246.358002,574.665955 
	C246.358002,592.437988 246.358002,610.167236 246.358002,629.029053 
	C249.337692,627.932739 251.664017,627.076782 253.998917,625.269775 
M415.000122,594.812988 
	C415.000122,593.024414 415.000122,591.235840 415.000122,588.212036 
	C424.424072,600.598572 432.864105,611.737000 441.360779,622.832031 
	C443.921265,626.175537 446.368317,629.989746 451.747345,627.437988 
	C451.747345,609.810242 451.747345,592.067078 451.747345,574.276855 
	C449.427307,574.276855 447.366272,574.276855 444.803894,574.276855 
	C444.803894,587.203064 444.803894,599.860901 444.803894,613.578857 
	C435.912933,601.768921 427.809265,590.827026 419.491638,580.050293 
	C416.484375,576.153870 413.440948,571.551331 407.353394,574.612732 
	C407.353394,592.421875 407.353394,610.156189 407.353394,627.796509 
	C409.991974,627.796509 412.277191,627.796509 415.000122,627.796509 
	C415.000122,616.979370 415.000122,606.360229 415.000122,594.812988 
M524.065430,621.574341 
	C525.053162,619.740112 526.753479,617.966125 526.914673,616.061951 
	C528.087891,602.198608 528.951294,588.308960 529.923462,574.272156 
	C525.767944,574.272156 523.042969,574.272156 520.490723,574.272156 
	C520.244019,574.680481 520.090088,574.816406 520.089661,574.952881 
	C520.052063,586.098816 519.942871,597.245483 520.025757,608.390686 
	C520.094788,617.668274 510.657257,626.623657 500.138702,620.670044 
	C494.702667,617.593201 493.237610,612.582397 493.089233,607.163635 
	C492.790100,596.239563 493.000183,585.301575 493.000183,574.261230 
	C489.791870,574.261230 487.067352,574.261230 484.005676,574.261230 
	C484.005676,585.300903 483.686218,596.096313 484.160675,606.856628 
	C484.354401,611.250183 485.315674,616.154663 487.570679,619.814453 
	C495.630219,632.894897 516.528198,631.522461 524.065430,621.574341 
M379.951172,623.788696 
	C373.649017,608.250427 367.172394,592.778503 361.208252,577.111572 
	C360.155518,574.346130 358.960175,573.822205 356.672791,574.021667 
	C354.098114,574.246094 351.119843,572.860352 349.614807,576.718567 
	C342.958618,593.781677 336.098389,610.765137 329.272339,627.876831 
	C332.572937,627.876831 335.552490,627.876831 338.560364,627.876831 
	C340.187042,623.585571 341.644196,619.332703 343.460754,615.239258 
	C343.909821,614.227356 345.508240,613.132690 346.608856,613.099915 
	C353.249054,612.901855 359.898132,613.001465 366.442993,613.001465 
	C367.707062,616.249573 368.792694,619.272034 370.049500,622.221558 
	C372.915894,628.948730 373.097382,629.004150 380.967316,627.309814 
	C380.641724,626.397156 380.322662,625.502808 379.951172,623.788696 
M587.446167,622.000000 
	C581.693054,622.000000 575.939880,622.000000 570.350342,622.000000 
	C570.350342,615.605957 570.350342,609.878540 570.350342,603.727661 
	C577.434204,603.727661 584.170593,603.727661 590.800293,603.727661 
	C590.800293,601.667603 590.800293,600.050842 590.800293,597.990173 
	C583.879761,597.990173 577.137695,597.990173 570.248657,597.990173 
	C570.248657,591.816956 570.248657,586.093445 570.248657,579.932007 
	C578.894653,579.932007 587.301331,579.932007 595.719971,579.932007 
	C595.719971,577.760498 595.719971,576.033142 595.719971,574.293579 
	C584.054138,574.293579 572.666809,574.293579 561.293945,574.293579 
	C561.293945,592.299133 561.293945,610.009583 561.293945,627.711426 
	C572.989136,627.711426 584.387939,627.711426 596.036316,627.711426 
	C595.938599,625.679138 595.855469,623.949341 595.761719,622.000000 
	C593.046448,622.000000 590.734985,622.000000 587.446167,622.000000 
M200.535706,622.000000 
	C197.435028,622.000000 194.334335,622.000000 191.324097,622.000000 
	C191.324097,615.662842 191.324097,609.936584 191.324097,603.790466 
	C198.390198,603.790466 205.140579,603.790466 211.831970,603.790466 
	C211.831970,601.732361 211.831970,600.107910 211.831970,597.865417 
	C204.820206,597.865417 197.947769,597.865417 191.221649,597.865417 
	C191.221649,591.635132 191.221649,586.027222 191.221649,579.984619 
	C199.835632,579.984619 208.240662,579.984619 216.752655,579.984619 
	C216.752655,577.812134 216.752655,576.085083 216.752655,574.264526 
	C205.117722,574.264526 193.728699,574.264526 182.264862,574.264526 
	C182.264862,592.240234 182.264862,609.950256 182.264862,627.737549 
	C193.927643,627.737549 205.323746,627.737549 216.710342,627.737549 
	C216.710342,625.742859 216.710342,624.015198 216.710342,622.000000 
	C211.459839,622.000000 206.491074,622.000000 200.535706,622.000000 
M625.000000,592.500671 
	C625.000000,604.237793 625.000000,615.974915 625.000000,627.728882 
	C635.966003,627.728882 646.355774,627.728882 656.703247,627.728882 
	C656.703247,625.726318 656.703247,623.999573 656.703247,621.833557 
	C649.024170,621.833557 641.630981,621.833557 633.842285,621.833557 
	C633.842285,605.681702 633.842285,589.973816 633.842285,574.308411 
	C630.695129,574.308411 627.970825,574.308411 625.000000,574.308411 
	C625.000000,580.242615 625.000000,585.872009 625.000000,592.500671 
z"/>
<path fill="#F5AE84" opacity="1.000000" stroke="none" 
	d="
M952.000000,641.001343 
	C869.217712,641.001343 786.935364,641.001343 704.326355,641.001343 
	C704.326355,614.062561 704.326355,587.339722 704.326355,560.306885 
	C815.618591,560.306885 926.983276,560.306885 1038.674805,560.306885 
	C1038.674805,586.936462 1038.674805,613.659485 1038.674805,641.001343 
	C1010.000977,641.001343 981.250488,641.001343 952.000000,641.001343 
M821.519409,628.257446 
	C834.305481,625.197083 841.815674,615.162720 841.846436,601.098267 
	C841.876099,587.546936 834.337952,576.883362 822.664062,573.962830 
	C811.242126,571.105286 800.658325,574.601379 794.189636,583.368591 
	C787.608521,592.288208 787.113220,607.053162 793.062012,616.987183 
	C798.522095,626.105103 808.724304,630.353271 821.519409,628.257446 
M758.557007,619.913696 
	C754.831116,614.717285 751.105286,609.520813 747.244751,604.136597 
	C749.447205,602.980774 751.117310,602.254456 752.630188,601.283203 
	C757.928406,597.881775 760.021118,592.906372 759.365723,586.751282 
	C758.754211,581.008057 755.581421,576.639709 750.065552,575.703735 
	C741.881287,574.315002 733.493896,574.122986 725.160461,573.418823 
	C725.160461,592.437317 725.160461,609.999817 725.160461,627.583008 
	C727.553589,627.583008 729.584534,627.583008 732.138000,627.583008 
	C732.138000,619.918701 732.138000,612.668640 732.138000,605.569275 
	C737.442444,604.036987 740.801025,605.453003 743.457397,609.852722 
	C746.458618,614.823730 750.099426,619.409790 753.482422,624.148743 
	C756.616577,628.538879 757.762817,628.873657 763.636230,627.016785 
	C762.040588,624.786804 760.506042,622.642212 758.557007,619.913696 
M924.913269,611.297913 
	C922.815979,616.636902 920.718628,621.975891 918.561340,627.467529 
	C922.788574,628.458801 925.495483,628.402344 927.136780,624.120911 
	C931.419922,612.948547 931.592041,613.014587 943.790466,613.014587 
	C944.123108,613.014587 944.455811,613.014587 944.788452,613.014587 
	C955.328369,613.014587 955.527283,612.943481 959.150574,623.083618 
	C960.796143,627.688965 963.345825,629.017090 967.812317,627.486877 
	C967.760376,626.950500 967.823425,626.418396 967.649841,625.979980 
	C961.161072,609.595154 954.730469,593.186035 948.000732,576.900574 
	C947.424194,575.505432 944.811401,574.147400 943.200623,574.210266 
	C941.587219,574.273315 939.226868,575.793274 938.600708,577.270874 
	C933.931396,588.289490 929.611572,599.456360 924.913269,611.297913 
M1001.935547,575.189331 
	C996.252563,578.672241 993.685852,583.769958 994.433594,590.358948 
	C995.194275,597.061401 999.755310,600.347961 1005.690918,602.298401 
	C1008.687622,603.283142 1011.695435,604.277283 1014.589539,605.520203 
	C1018.064758,607.012695 1020.320068,609.508423 1019.977356,613.624695 
	C1019.645752,617.607422 1017.869507,620.603760 1014.007263,622.067932 
	C1008.714600,624.074280 1003.766785,623.095215 999.443359,619.706787 
	C995.597717,616.692749 993.608704,617.735229 992.419495,622.164734 
	C996.217896,626.417969 1001.082397,628.381592 1006.501709,628.920349 
	C1016.748352,629.939026 1024.391357,624.697571 1026.375610,615.539307 
	C1028.281128,606.744019 1024.690186,601.503235 1014.119446,597.534180 
	C1011.014465,596.368286 1007.742004,595.429443 1004.931763,593.743896 
	C999.291382,590.361023 999.784180,583.020081 1005.720947,580.170959 
	C1010.531250,577.862488 1015.134216,578.854187 1019.421448,581.695068 
	C1021.285278,582.930115 1023.322632,583.894409 1024.107300,581.028015 
	C1024.478149,579.673523 1023.693237,577.090027 1022.592102,576.396118 
	C1016.305420,572.434448 1009.569397,571.690247 1001.935547,575.189331 
M867.169250,627.264587 
	C878.639038,633.060913 890.640747,625.486511 891.001709,611.903931 
	C891.311157,600.261047 891.084961,588.603516 891.045410,576.952637 
	C891.042236,576.032471 890.644897,575.113647 890.474304,574.380920 
	C888.255676,574.380920 886.350159,574.380920 884.026245,574.380920 
	C884.026245,576.728943 884.031250,578.701050 884.025513,580.673096 
	C883.995728,590.991943 884.198669,601.318481 883.858948,611.627197 
	C883.575806,620.217651 879.435669,623.756409 870.992676,622.708801 
	C867.437256,622.267639 866.920593,623.711304 867.169250,627.264587 
z"/>
<path fill="#F6AE84" opacity="1.000000" stroke="none" 
	d="
M253.994629,625.745300 
	C251.664017,627.076782 249.337692,627.932739 246.358002,629.029053 
	C246.358002,610.167236 246.358002,592.437988 246.358002,574.665955 
	C253.684738,572.918518 255.284378,573.758240 258.842987,580.426758 
	C263.985168,590.062683 269.313721,599.599182 274.921204,609.832214 
	C281.718353,597.492737 288.094788,585.917114 294.588745,574.128113 
	C297.302673,574.128113 300.288727,574.128113 303.636780,574.128113 
	C303.636780,591.834473 303.636780,609.562195 303.636780,627.645752 
	C301.438263,627.645752 299.040344,627.645752 296.149536,627.645752 
	C296.149536,615.131653 296.149536,602.434509 296.149536,589.737305 
	C295.820099,589.644165 295.490631,589.551025 295.161194,589.457825 
	C290.117004,598.570068 285.187195,607.749146 279.931946,616.738098 
	C278.884766,618.529236 276.676239,620.536682 274.849640,620.697327 
	C273.353516,620.828796 271.089783,618.679077 270.095428,616.992737 
	C264.781769,607.981689 259.759796,598.798584 253.998917,588.538635 
	C253.998917,601.562317 253.998917,613.416016 253.994629,625.745300 
z"/>
<path fill="#F6AE84" opacity="1.000000" stroke="none" 
	d="
M415.000122,595.277100 
	C415.000122,606.360229 415.000122,616.979370 415.000122,627.796509 
	C412.277191,627.796509 409.991974,627.796509 407.353394,627.796509 
	C407.353394,610.156189 407.353394,592.421875 407.353394,574.612732 
	C413.440948,571.551331 416.484375,576.153870 419.491638,580.050293 
	C427.809265,590.827026 435.912933,601.768921 444.803894,613.578857 
	C444.803894,599.860901 444.803894,587.203064 444.803894,574.276855 
	C447.366272,574.276855 449.427307,574.276855 451.747345,574.276855 
	C451.747345,592.067078 451.747345,609.810242 451.747345,627.437988 
	C446.368317,629.989746 443.921265,626.175537 441.360779,622.832031 
	C432.864105,611.737000 424.424072,600.598572 415.000122,588.212036 
	C415.000122,591.235840 415.000122,593.024414 415.000122,595.277100 
z"/>
<path fill="#F6AE84" opacity="1.000000" stroke="none" 
	d="
M524.017944,621.949585 
	C516.528198,631.522461 495.630219,632.894897 487.570679,619.814453 
	C485.315674,616.154663 484.354401,611.250183 484.160675,606.856628 
	C483.686218,596.096313 484.005676,585.300903 484.005676,574.261230 
	C487.067352,574.261230 489.791870,574.261230 493.000183,574.261230 
	C493.000183,585.301575 492.790100,596.239563 493.089233,607.163635 
	C493.237610,612.582397 494.702667,617.593201 500.138702,620.670044 
	C510.657257,626.623657 520.094788,617.668274 520.025757,608.390686 
	C519.942871,597.245483 520.052063,586.098816 520.089661,574.952881 
	C520.090088,574.816406 520.244019,574.680481 520.490723,574.272156 
	C523.042969,574.272156 525.767944,574.272156 529.923462,574.272156 
	C528.951294,588.308960 528.087891,602.198608 526.914673,616.061951 
	C526.753479,617.966125 525.053162,619.740112 524.017944,621.949585 
z"/>
<path fill="#F6AE84" opacity="1.000000" stroke="none" 
	d="
M379.977417,624.198608 
	C380.322662,625.502808 380.641724,626.397156 380.967316,627.309814 
	C373.097382,629.004150 372.915894,628.948730 370.049500,622.221558 
	C368.792694,619.272034 367.707062,616.249573 366.442993,613.001465 
	C359.898132,613.001465 353.249054,612.901855 346.608856,613.099915 
	C345.508240,613.132690 343.909821,614.227356 343.460754,615.239258 
	C341.644196,619.332703 340.187042,623.585571 338.560364,627.876831 
	C335.552490,627.876831 332.572937,627.876831 329.272339,627.876831 
	C336.098389,610.765137 342.958618,593.781677 349.614807,576.718567 
	C351.119843,572.860352 354.098114,574.246094 356.672791,574.021667 
	C358.960175,573.822205 360.155518,574.346130 361.208252,577.111572 
	C367.172394,592.778503 373.649017,608.250427 379.977417,624.198608 
M353.900177,588.559265 
	C351.370026,594.963501 348.839844,601.367798 346.327667,607.726440 
	C352.335449,607.726440 358.074219,607.726440 364.408264,607.726440 
	C361.396484,600.031982 358.558014,592.780212 355.569550,585.145264 
	C354.835571,586.417969 354.431244,587.119080 353.900177,588.559265 
z"/>
<path fill="#F6AE84" opacity="1.000000" stroke="none" 
	d="
M587.934875,622.000000 
	C590.734985,622.000000 593.046448,622.000000 595.761719,622.000000 
	C595.855469,623.949341 595.938599,625.679138 596.036316,627.711426 
	C584.387939,627.711426 572.989136,627.711426 561.293945,627.711426 
	C561.293945,610.009583 561.293945,592.299133 561.293945,574.293579 
	C572.666809,574.293579 584.054138,574.293579 595.719971,574.293579 
	C595.719971,576.033142 595.719971,577.760498 595.719971,579.932007 
	C587.301331,579.932007 578.894653,579.932007 570.248657,579.932007 
	C570.248657,586.093445 570.248657,591.816956 570.248657,597.990173 
	C577.137695,597.990173 583.879761,597.990173 590.800293,597.990173 
	C590.800293,600.050842 590.800293,601.667603 590.800293,603.727661 
	C584.170593,603.727661 577.434204,603.727661 570.350342,603.727661 
	C570.350342,609.878540 570.350342,615.605957 570.350342,622.000000 
	C575.939880,622.000000 581.693054,622.000000 587.934875,622.000000 
z"/>
<path fill="#F6AE84" opacity="1.000000" stroke="none" 
	d="
M201.029007,622.000000 
	C206.491074,622.000000 211.459839,622.000000 216.710342,622.000000 
	C216.710342,624.015198 216.710342,625.742859 216.710342,627.737549 
	C205.323746,627.737549 193.927643,627.737549 182.264862,627.737549 
	C182.264862,609.950256 182.264862,592.240234 182.264862,574.264526 
	C193.728699,574.264526 205.117722,574.264526 216.752655,574.264526 
	C216.752655,576.085083 216.752655,577.812134 216.752655,579.984619 
	C208.240662,579.984619 199.835632,579.984619 191.221649,579.984619 
	C191.221649,586.027222 191.221649,591.635132 191.221649,597.865417 
	C197.947769,597.865417 204.820206,597.865417 211.831970,597.865417 
	C211.831970,600.107910 211.831970,601.732361 211.831970,603.790466 
	C205.140579,603.790466 198.390198,603.790466 191.324097,603.790466 
	C191.324097,609.936584 191.324097,615.662842 191.324097,622.000000 
	C194.334335,622.000000 197.435028,622.000000 201.029007,622.000000 
z"/>
<path fill="#F6AE84" opacity="1.000000" stroke="none" 
	d="
M625.000000,592.000977 
	C625.000000,585.872009 625.000000,580.242615 625.000000,574.308411 
	C627.970825,574.308411 630.695129,574.308411 633.842285,574.308411 
	C633.842285,589.973816 633.842285,605.681702 633.842285,621.833557 
	C641.630981,621.833557 649.024170,621.833557 656.703247,621.833557 
	C656.703247,623.999573 656.703247,625.726318 656.703247,627.728882 
	C646.355774,627.728882 635.966003,627.728882 625.000000,627.728882 
	C625.000000,615.974915 625.000000,604.237793 625.000000,592.000977 
z"/>
<path fill="#4F62A5" opacity="1.000000" stroke="none" 
	d="
M821.109436,628.376404 
	C808.724304,630.353271 798.522095,626.105103 793.062012,616.987183 
	C787.113220,607.053162 787.608521,592.288208 794.189636,583.368591 
	C800.658325,574.601379 811.242126,571.105286 822.664062,573.962830 
	C834.337952,576.883362 841.876099,587.546936 841.846436,601.098267 
	C841.815674,615.162720 834.305481,625.197083 821.109436,628.376404 
M818.051636,622.924438 
	C826.115601,621.628113 831.841553,617.111755 833.182434,609.131775 
	C834.144287,603.407654 834.121094,597.083740 832.705750,591.490845 
	C830.260864,581.829773 820.357605,577.012634 810.611694,579.515320 
	C800.490356,582.114441 794.877502,591.905396 796.390686,604.322327 
	C797.933105,616.978760 804.627197,622.977478 818.051636,622.924438 
z"/>
<path fill="#4F62A5" opacity="1.000000" stroke="none" 
	d="
M758.764282,620.205688 
	C760.506042,622.642212 762.040588,624.786804 763.636230,627.016785 
	C757.762817,628.873657 756.616577,628.538879 753.482422,624.148743 
	C750.099426,619.409790 746.458618,614.823730 743.457397,609.852722 
	C740.801025,605.453003 737.442444,604.036987 732.138000,605.569275 
	C732.138000,612.668640 732.138000,619.918701 732.138000,627.583008 
	C729.584534,627.583008 727.553589,627.583008 725.160461,627.583008 
	C725.160461,609.999817 725.160461,592.437317 725.160461,573.418823 
	C733.493896,574.122986 741.881287,574.315002 750.065552,575.703735 
	C755.581421,576.639709 758.754211,581.008057 759.365723,586.751282 
	C760.021118,592.906372 757.928406,597.881775 752.630188,601.283203 
	C751.117310,602.254456 749.447205,602.980774 747.244751,604.136597 
	C751.105286,609.520813 754.831116,614.717285 758.764282,620.205688 
M751.858398,585.805298 
	C748.194641,580.097717 741.634216,578.405029 732.308594,580.805298 
	C732.308594,587.017517 732.308594,593.247742 732.308594,599.895630 
	C735.921204,599.895630 739.238953,600.196167 742.483032,599.834900 
	C749.905884,599.008301 753.270691,594.167480 751.858398,585.805298 
z"/>
<path fill="#4F62A5" opacity="1.000000" stroke="none" 
	d="
M925.047729,610.937378 
	C929.611572,599.456360 933.931396,588.289490 938.600708,577.270874 
	C939.226868,575.793274 941.587219,574.273315 943.200623,574.210266 
	C944.811401,574.147400 947.424194,575.505432 948.000732,576.900574 
	C954.730469,593.186035 961.161072,609.595154 967.649841,625.979980 
	C967.823425,626.418396 967.760376,626.950500 967.812317,627.486877 
	C963.345825,629.017090 960.796143,627.688965 959.150574,623.083618 
	C955.527283,612.943481 955.328369,613.014587 944.788452,613.014587 
	C944.455811,613.014587 944.123108,613.014587 943.790466,613.014587 
	C931.592041,613.014587 931.419922,612.948547 927.136780,624.120911 
	C925.495483,628.402344 922.788574,628.458801 918.561340,627.467529 
	C920.718628,621.975891 922.815979,616.636902 925.047729,610.937378 
M935.240173,602.891418 
	C934.768677,604.411438 934.297180,605.931458 933.730652,607.757812 
	C940.430542,607.757812 946.510803,607.757812 953.310059,607.757812 
	C950.012878,599.188477 946.882507,591.052551 943.420166,582.053894 
	C940.591980,589.276794 938.070496,595.716248 935.240173,602.891418 
z"/>
<path fill="#4F62A5" opacity="1.000000" stroke="none" 
	d="
M1002.285828,575.029541 
	C1009.569397,571.690247 1016.305420,572.434448 1022.592102,576.396118 
	C1023.693237,577.090027 1024.478149,579.673523 1024.107300,581.028015 
	C1023.322632,583.894409 1021.285278,582.930115 1019.421448,581.695068 
	C1015.134216,578.854187 1010.531250,577.862488 1005.720947,580.170959 
	C999.784180,583.020081 999.291382,590.361023 1004.931763,593.743896 
	C1007.742004,595.429443 1011.014465,596.368286 1014.119446,597.534180 
	C1024.690186,601.503235 1028.281128,606.744019 1026.375610,615.539307 
	C1024.391357,624.697571 1016.748352,629.939026 1006.501709,628.920349 
	C1001.082397,628.381592 996.217896,626.417969 992.419495,622.164734 
	C993.608704,617.735229 995.597717,616.692749 999.443359,619.706787 
	C1003.766785,623.095215 1008.714600,624.074280 1014.007263,622.067932 
	C1017.869507,620.603760 1019.645752,617.607422 1019.977356,613.624695 
	C1020.320068,609.508423 1018.064758,607.012695 1014.589539,605.520203 
	C1011.695435,604.277283 1008.687622,603.283142 1005.690918,602.298401 
	C999.755310,600.347961 995.194275,597.061401 994.433594,590.358948 
	C993.685852,583.769958 996.252563,578.672241 1002.285828,575.029541 
z"/>
<path fill="#4F62A5" opacity="1.000000" stroke="none" 
	d="
M867.090271,626.864624 
	C866.920593,623.711304 867.437256,622.267639 870.992676,622.708801 
	C879.435669,623.756409 883.575806,620.217651 883.858948,611.627197 
	C884.198669,601.318481 883.995728,590.991943 884.025513,580.673096 
	C884.031250,578.701050 884.026245,576.728943 884.026245,574.380920 
	C886.350159,574.380920 888.255676,574.380920 890.474304,574.380920 
	C890.644897,575.113647 891.042236,576.032471 891.045410,576.952637 
	C891.084961,588.603516 891.311157,600.261047 891.001709,611.903931 
	C890.640747,625.486511 878.639038,633.060913 867.090271,626.864624 
z"/>
<path fill="#000000" opacity="1.000000" stroke="none" 
	d="
M353.963562,588.189697 
	C354.431244,587.119080 354.835571,586.417969 355.569550,585.145264 
	C358.558014,592.780212 361.396484,600.031982 364.408264,607.726440 
	C358.074219,607.726440 352.335449,607.726440 346.327667,607.726440 
	C348.839844,601.367798 351.370026,594.963501 353.963562,588.189697 
z"/>
<path fill="#F5AE84" opacity="1.000000" stroke="none" 
	d="
M817.625366,622.946716 
	C804.627197,622.977478 797.933105,616.978760 796.390686,604.322327 
	C794.877502,591.905396 800.490356,582.114441 810.611694,579.515320 
	C820.357605,577.012634 830.260864,581.829773 832.705750,591.490845 
	C834.121094,597.083740 834.144287,603.407654 833.182434,609.131775 
	C831.841553,617.111755 826.115601,621.628113 817.625366,622.946716 
z"/>
<path fill="#F5AE84" opacity="1.000000" stroke="none" 
	d="
M751.971558,586.164734 
	C753.270691,594.167480 749.905884,599.008301 742.483032,599.834900 
	C739.238953,600.196167 735.921204,599.895630 732.308594,599.895630 
	C732.308594,593.247742 732.308594,587.017517 732.308594,580.805298 
	C741.634216,578.405029 748.194641,580.097717 751.971558,586.164734 
z"/>
<path fill="#F5AE84" opacity="1.000000" stroke="none" 
	d="
M935.394592,602.523560 
	C938.070496,595.716248 940.591980,589.276794 943.420166,582.053894 
	C946.882507,591.052551 950.012878,599.188477 953.310059,607.757812 
	C946.510803,607.757812 940.430542,607.757812 933.730652,607.757812 
	C934.297180,605.931458 934.768677,604.411438 935.394592,602.523560 
z"/>
</svg>